# xmcd
#
# Track frame offsets:
#	183
#	19180
#	35600
#	53188
#	69090
#	82450
#	95805
#	105773
#	114670
#	127498
#	140983
#	161458
#	176325
#	191585
#	209513
#	222883
#	235635
#	251450
#	264263
#	280363
#	292433
#	302200
#
# Disc length: 4406 seconds
#
# Revision: 7
# Processed by: cddbd v1.5.2PL0 Copyright (c) Steve Scherf et al.
# Submitted via: EasyCDDAExtractor 16.0.9.1
#
DISCID=57113416
DTITLE=Ray Charles - Lo Mejor de Ray Charles   N-018
DYEAR=1992
DGENRE=Blues
TTITLE0=I Can't Stop Loving You
TTITLE1=Georgia On My Mind
TTITLE2=Ruby
TTITLE3=Cry
TTITLE4=Eleanor Rigby
TTITLE5=Take These Chains From My Heart
TTITLE6=Hey, Good Lookin'
TTITLE7=Hit the Road Jack
TTITLE8=Unchain My Heart
TTITLE9=You Are My Sunshine
TTITLE10=What'd I Say
TTITLE11=Here We Go Again
TTITLE12=Born To Lose
TTITLE13=Careless Love
TTITLE14=Crying Time
TTITLE15=Yesterday
TTITLE16=You Win Again
TTITLE17=Main' Believe
TTITLE18=Your Cheatin' Heart
TTITLE19=Together Again
TTITLE20=Bye Bye Love
TTITLE21=I Got A Woman
EXTD=YEAR: 1992
EXTT0=
EXTT1=
EXTT2=
EXTT3=
EXTT4=
EXTT5=
EXTT6=
EXTT7=
EXTT8=
EXTT9=
EXTT10=
EXTT11=
EXTT12=
EXTT13=
EXTT14=
EXTT15=
EXTT16=
EXTT17=
EXTT18=
EXTT19=
EXTT20=
EXTT21=
PLAYORDER=
